<?xml version="1.0" encoding="utf-8"?>
<!-- Generator: Adobe Illustrator 23.0.3, SVG Export Plug-In . SVG Version: 6.00 Build 0)  -->
<svg version="1.1" id="Layer_1" xmlns="http://www.w3.org/2000/svg" xmlns:xlink="http://www.w3.org/1999/xlink" x="0px" y="0px"
	 viewBox="0 0 21.35 27.54" style="enable-background:new 0 0 21.35 27.54;" xml:space="preserve">
<style type="text/css">
	.st0{display:none;}
	.st1{display:inline;}
</style>
<g class="st0">
	<g class="st1">
		<g>
			<path d="M6.5,7.22c-0.01-0.17-0.2-4.19,1.66-6.16C8.82,0.36,9.67,0,10.67,0v1c-0.73,0-1.31,0.25-1.8,0.75
				C7.31,3.41,7.49,7.13,7.49,7.17L6.5,7.22z"/>
		</g>
		<g>
			<path d="M14.85,7.22l-1-0.05c0-0.04,0.18-3.76-1.39-5.42C11.99,1.25,11.4,1,10.67,1V0c1,0,1.85,0.36,2.52,1.07
				C15.06,3.03,14.86,7.05,14.85,7.22z"/>
		</g>
	</g>
	<g class="st1">
		<path d="M21.35,27.54H0L1.38,3.97h18.59L21.35,27.54z M1.06,26.54h19.23L19.02,4.97H2.33L1.06,26.54z"/>
	</g>
	<rect x="10.66" y="0" class="st1" width="0.03" height="1"/>
</g>
<g>
	<g>
		<path d="M6.62,7.11c-0.01-0.17-0.2-4.16,1.63-6.09C8.89,0.34,9.7,0,10.66,0v0.6c-0.8,0-1.44,0.27-1.97,0.83
			C7.03,3.17,7.22,7.04,7.22,7.08L6.62,7.11z"/>
	</g>
	<g>
		<path d="M14.69,7.11l-0.6-0.03c0-0.04,0.19-3.91-1.46-5.65C12.1,0.87,11.46,0.6,10.66,0.6V0c0.96,0,1.77,0.34,2.41,1.02
			C14.89,2.95,14.7,6.94,14.69,7.11z"/>
	</g>
</g>
<g>
	<path d="M19.95,27.54H1.44L1.4,4.03h18.51L19.95,27.54z M2.03,26.94h17.31L19.31,4.62H2L2.03,26.94z"/>
</g>
</svg>
