<?xml version="1.0" encoding="utf-8"?>
<!-- Generator: Adobe Illustrator 23.0.3, SVG Export Plug-In . SVG Version: 6.00 Build 0)  -->
<svg version="1.1" id="Layer_1" xmlns="http://www.w3.org/2000/svg" xmlns:xlink="http://www.w3.org/1999/xlink" x="0px" y="0px"
	 viewBox="0 0 300.25 26.31" style="enable-background:new 0 0 300.25 26.31;" xml:space="preserve">
<style type="text/css">
	.st0{fill:#1D1D1B;}
</style>
<g id="XMLID_1151_">
	<path id="XMLID_1513_" class="st0" d="M15.72,18.53c-0.41,1.62-0.98,3-1.72,4.15c-1.55,2.41-3.59,3.61-6.1,3.61H0v-1.58
		c0-0.38,0.12-0.61,0.36-0.68l1.36-0.42V2.68C0.96,2.44,0.5,2.31,0.36,2.26C0.12,2.18,0,1.96,0,1.58V0h7.9c2.52,0,4.56,1.2,6.1,3.61
		c1.55,2.43,2.33,5.62,2.33,9.54C16.33,15.12,16.13,16.92,15.72,18.53z M13.52,8.82c-0.29-1.27-0.69-2.35-1.22-3.23
		C11.23,3.78,9.76,2.88,7.9,2.88H4.05v20.53H7.9c1.85,0,3.32-0.91,4.41-2.72c1.1-1.82,1.65-4.34,1.65-7.54
		C13.95,11.54,13.81,10.1,13.52,8.82z"/>
	<path id="XMLID_1511_" class="st0" d="M44.91,0v6.35h-1.15c-0.28,0-0.45-0.22-0.5-0.64C43.25,5.6,43.19,4.66,43.1,2.9h-6.4v8.74H43
		v2.79H36.7v8.97h6.41c0.09-1.63,0.14-2.49,0.16-2.61c0.06-0.41,0.22-0.62,0.5-0.62h1.15v6.13H32.64v-1.58
		c0-0.38,0.12-0.61,0.36-0.68l1.36-0.42V2.68C33.6,2.44,33.15,2.31,33,2.26c-0.24-0.07-0.36-0.3-0.36-0.68V0H44.91z"/>
	<path id="XMLID_1508_" class="st0" d="M78.5,24.84v1.45h-4.91v-1.45c0-0.33,0.11-0.54,0.32-0.62l0.98-0.42l-1.34-5.3h-7.38
		l-1.34,5.3l0.98,0.42c0.22,0.09,0.32,0.29,0.32,0.62v1.45h-4.91v-1.45c0-0.33,0.1-0.53,0.31-0.6l0.96-0.44L68.69,0h2.35l6.19,23.8
		l0.96,0.44C78.4,24.31,78.5,24.51,78.5,24.84z M72.91,15.92L70.38,5.83c-0.17-0.66-0.35-1.49-0.51-2.48
		c-0.19,1.08-0.36,1.91-0.5,2.49l-2.55,10.07H72.91z"/>
	<path id="XMLID_1311_" class="st0" d="M109.39,24.71v1.58h-0.43h-1.3h-0.76c-0.42,0-0.73-0.25-0.93-0.75l-4.44-9.39
		c-0.13-0.29-0.28-0.5-0.44-0.63c-0.16-0.13-0.4-0.19-0.72-0.19h-1.53v8.29c0,0,1.15,0.35,1.36,0.41c0.21,0.06,0.36,0.35,0.36,0.68
		v1.58h-1.72h-2.31h-1.72v-1.58c0-0.32,0.15-0.61,0.36-0.68c0.21-0.06,1.36-0.41,1.36-0.41V2.68c0,0-1.15-0.35-1.36-0.41
		c-0.21-0.06-0.36-0.35-0.36-0.68V0h1.72h4.61c1.08,0,2.02,0.17,2.81,0.5c0.79,0.34,1.44,0.82,1.95,1.46
		c0.51,0.64,0.89,1.4,1.14,2.3c0.25,0.9,0.37,1.91,0.37,3.02c0,0.93-0.1,1.8-0.29,2.6c-0.19,0.81-0.47,1.53-0.83,2.18
		c-0.36,0.64-0.81,1.19-1.33,1.64c-0.52,0.45-1.11,0.8-1.77,1.03c0.29,0.26,0.54,0.63,0.76,1.12l3.71,7.77
		c0.15,0.05,1.15,0.35,1.34,0.41C109.23,24.09,109.39,24.38,109.39,24.71z M102.83,12.36c0.51-0.25,0.94-0.61,1.29-1.06
		c0.35-0.46,0.61-1.01,0.78-1.64c0.18-0.64,0.26-1.34,0.26-2.11c0-1.56-0.34-2.75-1.01-3.54c-0.67-0.8-1.67-1.19-3-1.19h-2.3v9.93
		h2.2C101.72,12.73,102.31,12.61,102.83,12.36z"/>
	<path id="XMLID_1164_" class="st0" d="M148.42,18.53c-0.41,1.62-0.98,3-1.72,4.15c-1.55,2.41-3.59,3.61-6.1,3.61h-7.9v-1.58
		c0-0.38,0.12-0.61,0.36-0.68l1.36-0.42V2.68c-0.76-0.23-1.22-0.37-1.36-0.42c-0.24-0.07-0.36-0.3-0.36-0.68V0h7.9
		c2.52,0,4.56,1.2,6.1,3.61c1.55,2.43,2.33,5.62,2.33,9.54C149.03,15.12,148.83,16.92,148.42,18.53z M146.22,8.82
		c-0.29-1.27-0.69-2.35-1.22-3.23c-1.08-1.81-2.55-2.72-4.41-2.72h-3.85v20.53h3.85c1.85,0,3.32-0.91,4.41-2.72
		c1.1-1.82,1.65-4.34,1.65-7.54C146.65,11.54,146.51,10.1,146.22,8.82z"/>
	<path id="XMLID_1161_" class="st0" d="M182.62,24.84v1.45h-4.91v-1.45c0-0.33,0.11-0.54,0.32-0.62l0.98-0.42l-1.34-5.3h-7.38
		l-1.34,5.3l0.98,0.42c0.22,0.09,0.32,0.29,0.32,0.62v1.45h-4.91v-1.45c0-0.33,0.1-0.53,0.31-0.6l0.96-0.44l6.2-23.8h2.35l6.19,23.8
		l0.96,0.44C182.51,24.31,182.62,24.51,182.62,24.84z M177.03,15.92L174.5,5.83c-0.18-0.66-0.35-1.49-0.51-2.48
		c-0.19,1.08-0.36,1.91-0.5,2.49l-2.55,10.07H177.03z"/>
	<path id="XMLID_1159_" class="st0" d="M214.54,2.68v20.94c0.77,0.23,1.25,0.38,1.45,0.44c0.19,0.06,0.29,0.28,0.29,0.66v1.58h-5.78
		v-1.58c0-0.38,0.12-0.61,0.36-0.68l1.36-0.42v-9.28h-9.22v9.28c1.15,0.35,1.72,0.72,1.72,1.1v1.58h-5.77v-1.58
		c0-0.38,0.12-0.61,0.36-0.68l1.36-0.42V2.68c-0.76-0.23-1.24-0.38-1.43-0.44c-0.19-0.06-0.29-0.28-0.29-0.66V0h5.77v1.58
		c0,0.38-0.08,0.6-0.26,0.65c-0.17,0.06-0.66,0.2-1.46,0.45v9.05h9.22V2.68c-0.76-0.23-1.24-0.38-1.44-0.44
		c-0.19-0.06-0.29-0.28-0.29-0.66V0h5.78v1.58c0,0.38-0.12,0.61-0.37,0.68L214.54,2.68z"/>
	<path id="XMLID_1157_" class="st0" d="M244.57,26.29h-0.55h-0.22h-9.51h-1.72v-1.58c0-0.32,0.15-0.61,0.36-0.68
		c0.21-0.06,1.36-0.41,1.36-0.41V2.68c0,0-1.15-0.35-1.36-0.41c-0.21-0.06-0.36-0.35-0.36-0.68V0h1.72h2.32h0h1.72v1.58
		c0,0.32-0.15,0.61-0.36,0.68c-0.21,0.06-1.32,0.41-1.36,0.41V23.3h6.18c0.06-1.05,0.11-1.96,0.13-2.1
		c0.05-0.36,0.26-0.63,0.49-0.63h1.16V26.29z"/>
	<path id="XMLID_1155_" class="st0" d="M264.93,2.68v20.94c0.77,0.23,1.25,0.38,1.45,0.44c0.19,0.06,0.29,0.28,0.29,0.66v1.58h-5.77
		v-1.58c0-0.38,0.12-0.61,0.36-0.68l1.36-0.42V2.68c-0.76-0.23-1.24-0.38-1.43-0.44c-0.19-0.06-0.29-0.28-0.29-0.66V0h5.77v1.58
		c0,0.38-0.12,0.61-0.37,0.68L264.93,2.68z"/>
	<path id="XMLID_1152_" class="st0" d="M300.25,24.84v1.45h-4.91v-1.45c0-0.33,0.11-0.54,0.32-0.62l0.98-0.42l-1.34-5.3h-7.38
		l-1.34,5.3l0.98,0.42c0.22,0.09,0.32,0.29,0.32,0.62v1.45h-4.91v-1.45c0-0.33,0.1-0.53,0.31-0.6l0.96-0.44l6.2-23.8h2.35l6.19,23.8
		l0.96,0.44C300.14,24.31,300.25,24.51,300.25,24.84z M294.65,15.92l-2.53-10.09c-0.17-0.66-0.35-1.49-0.51-2.48
		c-0.19,1.08-0.36,1.91-0.5,2.49l-2.55,10.07H294.65z"/>
</g>
</svg>
